<svg width="152" height="31" viewBox="0 0 152 31" fill="none" xmlns="http://www.w3.org/2000/svg">
<path d="M49.4768 7.63428C41.0845 7.63428 38.9865 9.44158 38.3409 13.0239C37.7277 16.6063 39.277 18.0908 46.4427 18.0908C50.6388 18.0908 51.8331 18.0908 51.6394 19.1236C51.4457 20.1886 50.2515 20.1886 47.2496 20.1886C44.2478 20.1886 43.0535 20.1886 43.2794 18.9945H37.0175C36.2751 23.19 38.1473 24.3841 46.5395 24.3841C54.9318 24.3841 57.2235 23.19 57.9659 18.9945C58.6114 15.4121 56.7716 13.8953 49.5736 13.8953C45.3775 13.8953 44.1832 13.863 44.3769 12.8625C44.5706 11.7975 45.7648 11.7975 48.7667 11.7975C51.1552 11.7975 52.9628 11.7975 52.7369 12.9916H58.7083C59.3538 9.31249 57.869 7.63428 49.4768 7.63428Z" fill="white"/>
<path fill-rule="evenodd" clip-rule="evenodd" d="M16.0965 0.697754C4.73307 0.697754 0.945312 4.48551 0.945312 15.8489C0.945312 27.2123 4.73307 31 16.0965 31C27.4598 31 31.2477 27.2123 31.2477 15.8489C31.2477 4.48551 27.4598 0.697754 16.0965 0.697754ZM10.47 17.2734L16.2673 8.40794C16.5198 8.02173 17.1202 8.26164 17.0371 8.71555L16.0525 14.0902H16.8417H17.7912H21.3673C21.7033 14.0902 21.9051 14.4633 21.7212 14.7445L15.924 23.61C15.6714 23.9962 15.071 23.7563 15.1542 23.3024L16.1387 17.9277H15.3496H13.8099H10.8239C10.4879 17.9277 10.2861 17.5546 10.47 17.2734Z" fill="white"/>
<path d="M77.1402 8.21484L75.7592 15.9927C75.2331 18.9941 72.8656 20.1882 70.4323 20.1882C67.9991 20.1882 66.059 18.9941 66.618 15.9927L67.9991 8.21484H61.2912L59.8772 15.9927C58.7921 21.9633 62.0146 24.3838 67.5058 24.3838C71.7805 24.3838 74.5426 22.5765 74.5426 22.5765L74.9372 23.7706H81.0203L83.8153 8.21484H77.1402Z" fill="white"/>
<path d="M98.9339 7.63428C94.6592 7.63428 92.5219 9.44158 92.5219 9.44158L92.7521 8.24747H86.0442L81.9668 31.0001H88.6747L90.1873 22.6091C90.1873 22.6091 91.6998 24.4164 95.9745 24.4164C101.466 24.4164 106.036 22.6091 107.22 16.0253C108.371 9.40931 104.425 7.63428 98.9339 7.63428ZM100.479 15.9931C99.9532 18.9945 97.5857 20.1886 95.1524 20.1886C92.7192 20.1886 90.7791 18.9945 91.3381 15.9931C91.8642 12.9916 94.2317 11.7975 96.665 11.7975C99.0983 11.7975 101.005 12.9916 100.479 15.9931Z" fill="white"/>
<path d="M121.183 7.63428C113.883 7.63428 109.509 9.89341 108.424 15.864C107.339 21.8345 110.89 24.3841 118.19 24.3841C123.32 24.3841 126.115 23.4805 128.745 21.1568L124.832 18.6717C123.977 19.1881 123.057 20.1886 118.947 20.1886C116.184 20.1886 114.935 19.1558 115.001 17.0581H130.718C130.817 16.6708 130.916 16.2835 130.981 15.864C132.034 9.86113 128.482 7.63428 121.183 7.63428ZM115.658 14.0567C116.448 12.3784 117.664 11.7975 120.426 11.7975C123.155 11.7975 124.208 12.3462 124.372 14.0567H115.658Z" fill="white"/>
<path d="M140.433 9.40931L140.663 8.2152H133.955L131.16 23.7709H137.868C137.868 23.7709 138.296 21.3827 139.052 17.1872C139.808 12.9916 142.965 12.4107 145.398 12.4107C147.798 12.4107 148.588 12.6689 150.166 13.0239L151.021 8.24747C150.166 7.98928 148.127 7.63428 146.253 7.63428C141.978 7.63428 140.433 9.40931 140.433 9.40931Z" fill="white"/>
</svg>
